<svg version="1.2" xmlns="http://www.w3.org/2000/svg" viewBox="0 0 100 100" width="100" height="100">
	<title>np_briefcase_907576_000000-svg</title>
	<style>
		.s0 { fill: #000000 } 
	</style>
	<path id="Layer" fill-rule="evenodd" class="s0" d="m58.9 56.6h31v27.6c0 2-1.6 3.6-3.5 3.6h-72.8c-1.9 0-3.5-1.6-3.5-3.6v-27.6h31.2v0.9h1.2v7.3c0 2 1.6 3.6 3.5 3.6h8c1.9 0 3.5-1.6 3.5-3.6v-7.3h1.4zm33.2-28.8v21.6c0 2-1.6 3.5-3.5 3.5h-77.2c-1.9 0-3.5-1.5-3.5-3.5v-21.6c0-1.9 1.6-3.5 3.5-3.5h23.8v-7c0-2.8 2.3-5.1 5.1-5.1h19.4c2.8 0 5.1 2.3 5.1 5.1v7h23.8c1.9 0 3.5 1.6 3.5 3.5zm-34.4-8.5h-15.4v5h15.4z"/>
</svg>